<svg width="535" height="839" viewBox="0 0 535 839" fill="none" xmlns="http://www.w3.org/2000/svg">
<path fill-rule="evenodd" clip-rule="evenodd" d="M117.245 13.0003L125.114 13L125.114 13.0016L130.084 13.0016L173.583 115.041L220.086 220.965H242.763H246.906V225.108V274.406H238.62V229.251H8.28543V274.406H0V225.108V220.965H4.14272H27.3869L73.7461 115.367L117.245 13.0003ZM96.9834 220.965H150.381L138.784 115.041L123.655 22.0181L108.545 115.367L96.9834 220.965Z" fill="white"/>
<path fill-rule="evenodd" clip-rule="evenodd" d="M422.412 0.000435829L422.412 0L422.412 0.000435829H421.975V3.00551L406.656 108.228L388 214.8H425.312H462.624L462.59 214.606H515.287H519.43V210.463V170.155H511.145V206.32H461.14L443.968 108.228L443.535 106.054H479.957V97.7682H441.885L424.062 8.28587H506.9V34.7993H515.186V4.14315V0.000435829H511.043H422.412Z" fill="white"/>
<path d="M407.412 502.436H415.283L432.931 627.696L447.624 717.235H410.312H373L391.656 610.664L407.412 502.436Z" fill="white"/>
<path d="M494.66 716.8H502.531L516.216 608.571L534.872 502H497.56H460.248L478.904 608.571L494.66 716.8Z" fill="white"/>
<path d="M444.068 716.267L464.222 502.53" stroke="white" stroke-width="7.95546"/>
<path fill-rule="evenodd" clip-rule="evenodd" d="M335.082 225L327.212 225L283.713 327.367L234 440.606L270.457 440.605H306.114L318.512 327.367L333.622 234.018L348.751 327.041L361.149 440.279H396.807L433.263 440.279L383.55 327.041L340.052 225.002L335.081 225.002L335.082 225Z" fill="white"/>
<path fill-rule="evenodd" clip-rule="evenodd" d="M48.4121 408L48.4121 408H137.041H141.183V412.143V442.799H132.898V416.286H50.0623L69.9681 516.228L87.1375 614.308H113.423V578.68H121.708V618.45V622.593H117.566H88.5879L88.6241 622.8H51.3121H14L32.656 516.228L47.9723 411.021V408H48.412L48.4121 408Z" fill="white"/>
<path fill-rule="evenodd" clip-rule="evenodd" d="M291.066 736.62L280.219 784.508L270.667 829.929H225.278L237.077 736.62H291.066ZM293.044 732.113L300.569 784.202L311.249 838.233L308.351 838.208V838.214H220.553H216.181L216.26 836.752L200.656 729.571L182 623H219.312H256.624L238.185 728.334H293.044V732.113Z" fill="white"/>
</svg>
